<?xml version="1.0" encoding="utf-8"?><!-- Uploaded to: SVG Repo, www.svgrepo.com, Generator: SVG Repo Mixer Tools -->
<svg xmlns="http://www.w3.org/2000/svg" width="24" height="24" viewBox="0 0 24 24" fill="none" stroke="currentColor" stroke-width="2" stroke-linecap="round" stroke-linejoin="round">
    <path d="M22 16.92v3.06a2 2 0 0 1-2.2 2A18.8 18.8 0 0 1 3.02 4.2a2 2 0 0 1 2-2h3.06A2 2 0 0 1 10 3.14l1.83 4a2 2 0 0 1-.4 2L8.7 11.83a12.1 12.1 0 0 0 5.48 5.48l2.63-2.63a2 2 0 0 1 2-.4l4 1.83a2 2 0 0 1 1.14 1.12z"/>
</svg>